#!OML:ASF \\Waltz\H\Terrain\Patient Classification 1\Animal1\Tuesday\Animal1.ASF
:FULLY-SPECIFIED
:DEGREES
3691
root 14.9505 14.8782 2.21683 46.5251 -34.4585 -6.75723
lowerback 40.7378 -3.84914 10.6453
upperback 12.2687 -1.76334 -4.88814
thorax -6.22429 -0.716567 -10.0689
lowerneck -7.4819 0.491843 1.42429
upperneck -30.2869 3.27543 12.4778
head -8.42043 -0.075619 3.99469
rclavicle 4.65156e-014 -6.81148e-015
rhumerus -50.7743 19.0068 -37.7056
rradius 11.2452
rwrist 37.1502
rhand 6.84855 19.1841
rfingers 7.12502
rthumb 32.1315 352.005
lclavicle 4.65156e-014 -6.81148e-015
lhumerus -83.5008 -34.8289 64.3718
lradius 37.0005
lwrist -36.3435
lhand 20.0046 -326.939
lfingers 7.12502
lthumb 44.5394 1136.74
rfemur -88.3082 11.6448 16.9888
rtibia 50.4455
rfoot -10.8275 9.24426
rtoes -9.07683
lfemur -73.4474 6.88958 1.81155
ltibia 77.5951
lfoot -8.88444 17.0227
ltoes -14.3516
3692
root 14.9564 14.8825 2.19172 46.5988 -34.5812 -7.06821
lowerback 40.8781 -3.79434 10.6884
upperback 12.3475 -1.68771 -4.93589
thorax -6.16373 -0.675526 -10.1726
lowerneck -7.89811 0.490877 1.18311
upperneck -29.8742 3.27738 12.7696
head -8.20187 -0.0347816 4.12341
rclavicle 1.06946e-013 -4.12307e-014
rhumerus -48.9697 16.9881 -32.808
rradius 10.4999
rwrist 40.5092
rhand 7.11405 18.6767
rfingers 7.12502
rthumb 32.3842 351.549
lclavicle 1.06946e-013 -4.12307e-014
lhumerus -81.9925 -34.6529 60.7951
lradius 34.9431
lwrist -37.4881
lhand 18.9409 -324.766
lfingers 7.12502
lthumb 43.5472 1139.28
rfemur -88.2218 11.8599 17.2907
rtibia 50.3846
rfoot -10.6712 9.57175
rtoes -8.80228
lfemur -73.3339 7.18356 2.01213
ltibia 77.6948
lfoot -8.49149 16.7117
ltoes -13.0498
3693
root 14.965 14.871 2.1727 46.3995 -34.6675 -6.6709
lowerback 40.8572 -3.89491 10.6495
upperback 12.3916 -1.84516 -5.14949
thorax -6.16066 -0.738327 -10.3267
lowerneck -8.09078 0.537272 1.41857
upperneck -29.6685 3.32166 12.818
head -8.10032 -0.0257609 4.08899
rclavicle -1.86858e-014 -2.59484e-014
rhumerus -47.1104 13.0132 -26.4787
rradius 9.89876
rwrist 46.747
rhand 7.05219 17.6477
rfingers 7.12502
rthumb 32.3254 350.508
lclavicle -1.86858e-014 -2.59484e-014
lhumerus -80.0677 -34.3907 56.4113
lradius 32.9199
lwrist -39.1054
lhand 17.138 -323.956
lfingers 7.12502
lthumb 41.8601 1140.68
rfemur -88.3823 11.679 16.9226
rtibia 50.3507
rfoot -10.5955 9.57591
rtoes -8.97399
lfemur -73.5575 6.96405 1.77077
ltibia 77.7315
lfoot -8.26451 16.6027
ltoes -13.678
3694
root 14.9711 14.8593 2.15045 46.102 -34.9778 -6.123
lowerback 40.869 -3.87539 10.2868
upperback 12.4664 -1.9849 -5.39747
thorax -6.13514 -0.794905 -10.356
lowerneck -8.23887 0.596958 1.68956
upperneck -29.5839 3.40366 12.8862
head -8.05345 -0.0143248 4.05976
rclavicle -4.33351e-014 2.01627e-014
rhumerus -45.6435 8.71447 -20.4645
rradius 9.43333
rwrist 53.203
rhand 6.52283 16.9418
rfingers 7.12502
rthumb 31.8214 349.7
lclavicle -4.33351e-014 2.01627e-014
lhumerus -77.7553 -33.9412 51.6448
lradius 30.8805
lwrist -40.5518
lhand 15.8587 -323.604
lfingers 7.12502
lthumb 40.6593 1141.42
rfemur -88.6512 11.5709 16.2559
rtibia 50.4373
rfoot -10.6413 9.38725
rtoes -8.80449
lfemur -73.6744 6.73789 1.3065
ltibia 77.6854
lfoot -8.14469 16.8766
ltoes -14.2808
3695
root 14.9838 14.847 2.1282 46.0366 -35.0719 -6.02546
lowerback 40.916 -3.91009 10.2544
upperback 12.5531 -2.04962 -5.48672
thorax -6.07381 -0.815891 -10.4108
lowerneck -8.62419 0.615576 1.69149
upperneck -29.2702 3.39758 13.016
head -7.87748 0.00237289 4.09362
rclavicle -9.93923e-015 2.12467e-014
rhumerus -44.4292 4.13178 -14.5781
rradius 9.09154
rwrist 59.4688
rhand 5.87454 17.0437
rfingers 7.12502
rthumb 31.2038 349.681
lclavicle -9.93923e-015 2.12467e-014
lhumerus -75.2276 -32.9204 46.7395
lradius 28.8961
lwrist -41.6389
lhand 15.0409 -321.917
lfingers 7.12502
lthumb 39.8901 1143.34
rfemur -88.8524 11.5674 16.1004
rtibia 50.5464
rfoot -10.6268 9.33184
rtoes -7.84609
lfemur -73.8031 6.73242 1.24826
ltibia 77.6786
lfoot -7.61426 17.2026
ltoes -16.8607
3696
root 14.9937 14.8325 2.1077 46.0672 -35.1537 -5.8962
lowerback 40.8413 -3.91186 10.1569
upperback 12.6218 -2.1026 -5.53255
thorax -5.99101 -0.833584 -10.3905
lowerneck -8.75506 0.66431 1.58628
upperneck -29.268 3.48449 13.1033
head -7.8617 0.0527244 4.14054
rclavicle 1.90833e-014 4.49781e-014
rhumerus -43.6451 -0.731053 -8.96393
rradius 8.91892
rwrist 65.663
rhand 4.89489 17.0777
rfingers 7.12502
rthumb 30.2697 349.54
lclavicle 1.90833e-014 4.49781e-014
lhumerus -72.7033 -31.4982 41.8146
lradius 27.0837
lwrist -42.6066
lhand 14.1667 -319.211
lfingers 7.12502
lthumb 39.0667 1146.29
rfemur -89.1302 11.5094 15.9683
rtibia 50.605
rfoot -10.67 9.33714
rtoes -7.91301
lfemur -74.0654 6.7793 1.14506
ltibia 77.6986
lfoot -7.64018 16.9796
ltoes -18.2287
3697
root 14.9982 14.8251 2.091 46.0432 -35.3107 -5.64167
lowerback 40.7505 -3.88847 9.93498
upperback 12.7403 -2.18107 -5.63314
thorax -5.85838 -0.858955 -10.3558
lowerneck -8.76548 0.732527 1.45927
upperneck -29.606 3.66238 13.2458
head -7.99582 0.116977 4.22283
rclavicle 3.97569e-015 7.0904e-014
rhumerus -43.3612 -5.98766 -3.69332
rradius 8.81034
rwrist 71.5505
rhand 2.96681 16.7052
rfingers 7.12502
rthumb 28.4288 348.845
lclavicle 3.97569e-015 7.0904e-014
lhumerus -70.078 -29.6844 36.6891
lradius 25.4343
lwrist -43.5491
lhand 12.5552 -316.514
lfingers 7.12502
lthumb 37.5457 1149.41
rfemur -89.3721 11.4063 15.7339
rtibia 50.5901
rfoot -10.7157 9.30005
rtoes -8.78878
lfemur -74.2346 6.7684 0.884202
ltibia 77.6872
lfoot -8.25346 16.7416
ltoes -16.9892
3698
root 15.0003 14.8262 2.07507 46.1788 -35.3822 -5.59139
lowerback 40.7069 -3.88849 9.85017
upperback 12.8625 -2.22829 -5.67925
thorax -5.72317 -0.869689 -10.3443
lowerneck -9.43415 0.656554 1.00475
upperneck -29.3526 3.59802 13.733
head -7.79223 0.129399 4.47076
rclavicle 4.37326e-014 4.09372e-015
rhumerus -43.5568 -11.5204 1.49241
rradius 8.78952
rwrist 76.7614
rhand 0.251305 16.2713
rfingers 7.12502
rthumb 25.8311 348.005
lclavicle 4.37326e-014 4.09372e-015
lhumerus -67.4602 -27.2415 31.2033
lradius 23.9953
lwrist -44.8461
lhand 9.12817 -314.37
lfingers 7.12502
lthumb 34.299 1152.35
rfemur -89.59 11.4398 15.5765
rtibia 50.5102
rfoot -10.6129 9.2363
rtoes -8.97184
lfemur -74.3872 6.85419 0.803342
ltibia 77.6572
lfoot -8.35654 16.927
ltoes -18.4121
3699
root 14.9976 14.8299 2.05457 46.3808 -35.3405 -5.69666
lowerback 40.772 -3.88943 9.83006
upperback 12.914 -2.22824 -5.61487
thorax -5.67881 -0.868088 -10.2601
lowerneck -10.3401 0.478335 0.275221
upperneck -28.6854 3.37472 14.3975
head -7.38984 0.118265 4.81533
rclavicle -4.37326e-015 -5.643e-014
rhumerus -44.3318 -16.9786 6.86213
rradius 8.9621
rwrist 81.5515
rhand -2.98403 16.1546
rfingers 7.12502
rthumb 22.7293 347.473
lclavicle -4.37326e-015 -5.643e-014
lhumerus -65.2428 -24.3957 25.8165
lradius 22.8248
lwrist -46.2114
lhand 5.10407 -312.013
lfingers 7.12502
lthumb 30.4692 1155.49
rfemur -89.7434 11.5817 15.5215
rtibia 50.382
rfoot -10.3758 9.2905
rtoes -7.93953
lfemur -74.5433 7.00837 0.970731
ltibia 77.5772
lfoot -7.90484 17.0673
ltoes -21.3842
3700
root 14.9944 14.8322 2.0367 46.4387 -35.2287 -5.74324
lowerback 40.8947 -3.95638 9.94004
upperback 12.9306 -2.26448 -5.6811
thorax -5.7099 -0.880652 -10.3742
lowerneck -10.4467 0.441193 0.140954
upperneck -28.4274 3.3805 14.7918
head -7.28414 0.124336 4.9673
rclavicle -3.49861e-014 -7.77745e-015
rhumerus -45.9342 -22.3531 12.1379
rradius 9.29899
rwrist 86.1141
rhand -6.96863 16.0433
rfingers 7.12502
rthumb 18.901 346.942
lclavicle -3.49861e-014 -7.77745e-015
lhumerus -63.4828 -21.7469 20.8436
lradius 22.0218
lwrist -46.5817
lhand 1.74564 -308.795
lfingers 7.12502
lthumb 27.2613 1159.25
rfemur -89.7391 11.5832 15.6404
rtibia 50.2296
rfoot -10.0317 9.51645
rtoes -7.33589
lfemur -74.5391 7.05537 1.15851
ltibia 77.4115
lfoot -7.81647 16.672
ltoes -19.9048
3701
root 14.9933 14.835 2.02133 46.4623 -35.1735 -5.64472
lowerback 40.9062 -4.02187 10.0316
upperback 12.9486 -2.33307 -5.92309
thorax -5.73083 -0.90198 -10.6653
lowerneck -10.0583 0.525097 0.557889
upperneck -28.4099 3.56836 15.024
head -7.36267 0.13924 4.96916
rclavicle -3.33958e-014 -1.23743e-014
rhumerus -48.4869 -27.5971 17.5141
rradius 9.72161
rwrist 90.1676
rhand -12.3999 15.859
rfingers 7.12502
rthumb 13.6716 346.328
lclavicle -3.33958e-014 -1.23743e-014
lhumerus -61.6984 -18.8957 15.6708
lradius 21.4283
lwrist -46.5614
lhand -1.26844 -305.385
lfingers 7.12502
lthumb 24.3749 1163.08
rfemur -89.7795 11.4744 15.6841
rtibia 50.0664
rfoot -9.87615 9.52968
rtoes -8.539
lfemur -74.5181 7.01541 1.15943
ltibia 77.1755
lfoot -7.64877 16.5066
ltoes -18.506
3702
root 14.989 14.8392 2.00439 46.5794 -35.1925 -5.56536
lowerback 40.849 -3.99557 9.95827
upperback 13.0178 -2.36177 -6.14699
thorax -5.6643 -0.902883 -10.8681
lowerneck -9.63328 0.685059 0.965279
upperneck -29.201 3.92655 15.0257
head -7.74825 0.194841 4.92598
rclavicle -2.3059e-014 5.3324e-014
rhumerus -52.0202 -32.664 23.5293
rradius 10.0935
rwrist 93.336
rhand -18.6614 16.1541
rfingers 7.12502
rthumb 7.63194 346.312
lclavicle -2.3059e-014 5.3324e-014
lhumerus -59.9669 -15.1183 10.1486
lradius 20.9889
lwrist -46.8759
lhand -3.72374 -301.958
lfingers 7.12502
lthumb 22.0192 1166.81
rfemur -89.9001 11.4676 15.5855
rtibia 49.8631
rfoot -9.93041 9.31505
rtoes -8.72781
lfemur -74.5669 7.05043 1.07822
ltibia 76.9029
lfoot -6.57663 17.1775
ltoes -22.2372
3703
root 14.9801 14.8452 1.98903 46.7188 -35.0293 -5.62724
lowerback 40.8869 -4.04213 10.0635
upperback 13.0955 -2.39335 -6.28274
thorax -5.60872 -0.904172 -11.0629
lowerneck -10.1229 0.575484 1.30452
upperneck -28.8301 3.71016 15.2484
head -7.52045 0.071491 4.93669
rclavicle -1.74931e-014 8.91177e-014
rhumerus -53.7077 -34.5251 25.6002
rradius 10.2567
rwrist 90.9474
rhand -24.1845 16.4034
rfingers 7.12502
rthumb 2.29913 346.436
lclavicle -1.74931e-014 8.91177e-014
lhumerus -59.1056 -11.7331 6.03028
lradius 20.9272
lwrist -44.9977
lhand -6.43528 -298.822
lfingers 7.12502
lthumb 19.4139 989.771
rfemur -89.9015 11.5361 15.5647
rtibia 49.6118
rfoot -9.72528 9.20143
rtoes -7.10781
lfemur -74.6257 7.11705 1.23138
ltibia 76.6722
lfoot -5.84299 17.5368
ltoes -24.8045
3704
root 14.9656 14.8584 1.97582 46.8522 -34.7244 -5.80429
lowerback 41.009 -4.13869 10.2763
upperback 13.1551 -2.41693 -6.25033
thorax -5.5799 -0.906745 -11.1261
lowerneck -10.7386 0.357426 0.887147
upperneck -28.0769 3.40527 15.9019
head -7.12871 -0.00883703 5.21588
rclavicle 5.48646e-014 -6.17972e-014
rhumerus -55.6204 -36.7702 28.1828
rradius 10.3902
rwrist 88.6609
rhand -28.9322 17.4263
rfingers 7.12502
rthumb -2.28628 347.459
lclavicle 5.48646e-014 -6.17972e-014
lhumerus -59.2011 -9.66032 4.20978
lradius 21.2781
lwrist -39.4844
lhand -10.3766 -296.318
lfingers 7.12502
lthumb 15.621 986.929
rfemur -89.7502 11.6413 15.6968
rtibia 49.3331
rfoot -9.55391 9.06099
rtoes -6.67775
lfemur -74.6017 7.16289 1.60511
ltibia 76.4663
lfoot -6.02439 17.4133
ltoes -25.7834
